HIERARCHY
ROOT Hips
{
  OFFSET 8.12952 102.331 -256.731
  CHANNELS 6 Xposition Yposition Zposition Zrotation Xrotation Yrotation
  JOINT RightUpLeg
  {
    OFFSET -8.9458 -8.66707 0.101652
    CHANNELS 3 Zrotation Xrotation Yrotation
    JOINT RightLeg
    {
      OFFSET 0 -44.4227 1.3727
      CHANNELS 3 Zrotation Xrotation Yrotation
      JOINT RightFoot
      {
        OFFSET 0.253549 -42.0924 -1.46059
        CHANNELS 3 Zrotation Xrotation Yrotation
        JOINT RightToes
        {
          OFFSET 0.04 -4.41509 8.4991
          CHANNELS 3 Zrotation Xrotation Yrotation
          End Site
          {
            OFFSET -0.08 -0.137448 9.77979
          }
        }
      }
    }
  }
  JOINT Spine
  {
    OFFSET 0 11.8905 0
    CHANNELS 3 Zrotation Xrotation Yrotation
    JOINT Spine1
    {
      OFFSET 0 25.6574 0.127663
      CHANNELS 3 Zrotation Xrotation Yrotation
      JOINT HEad
      {
        OFFSET 0 8.73416 0.011341
        CHANNELS 3 Zrotation Xrotation Yrotation
        End Site
        {
          OFFSET -0.29 12.7742 2.51395
        }
      }
      JOINT LeftShoulder1
      {
        OFFSET 8.99 -0.362252 -0.22
        CHANNELS 3 Zrotation Xrotation Yrotation
        JOINT LeftArm
        {
          OFFSET 10.2827 -0.00338 0.322123
          CHANNELS 3 Zrotation Xrotation Yrotation
          JOINT LeftForeArm
          {
            OFFSET 32.7669 0.099144 -1.42434
            CHANNELS 3 Zrotation Xrotation Yrotation
            JOINT LeftHand
            {
              OFFSET 27.5643 0.085362 1.02216
              CHANNELS 3 Zrotation Xrotation Yrotation
              End Site
              {
                OFFSET 16.7443 -0.6 1.50291
              }
            }
          }
        }
      }
      JOINT RightShoulder
      {
        OFFSET -8.99 -0.362252 -0.22
        CHANNELS 3 Zrotation Xrotation Yrotation
        JOINT RightArm
        {
          OFFSET -10.2827 -0.00338 0.322123
          CHANNELS 3 Zrotation Xrotation Yrotation
          JOINT RightForeArm
          {
            OFFSET -32.8971 0.099144 -1.42434
            CHANNELS 3 Zrotation Xrotation Yrotation
            JOINT RightHand
            {
              OFFSET -27.4921 0.085362 1.02216
              CHANNELS 3 Zrotation Xrotation Yrotation
              End Site
              {
                OFFSET -16.6312 -0.6 1.50291
              }
            }
          }
        }
      }
    }
  }
  JOINT LeftUpLeg
  {
    OFFSET 8.9458 -8.66707 0.101652
    CHANNELS 3 Zrotation Xrotation Yrotation
    JOINT LeftLeg
    {
      OFFSET 0 -44.4227 1.3727
      CHANNELS 3 Zrotation Xrotation Yrotation
      JOINT LeftFoot
      {
        OFFSET -0.253549 -42.0924 -1.46059
        CHANNELS 3 Zrotation Xrotation Yrotation
        JOINT LeftToes
        {
          OFFSET -0.04 -4.41509 8.4991
          CHANNELS 3 Zrotation Xrotation Yrotation
          End Site
          {
            OFFSET 0.08 -0.047448 9.77979
          }
        }
      }
    }
  }
}
MOTION
Frames:	17
Frame Time:	0.0166667
8.12952 102.331 -256.731 -0.0494331 0.0264136 -9.89905 3.19679 -22.5633 0.690786 4.05339 32.5876 -20.1999 4.08281 -7.6962 -0.0644606 0.0462048 0.000533964 0.662642 0.354653 3.99105 1.97182 9.53559 1.32205 0.134688 -13.1068 -12.4002 -6.37711 -3.8763e-015 -1.59028e-015 1.59028e-015 -94.6682 -27.1136 -14.7239 -17.4286 10.5077 11.2982 0.368473 9.90896 -0.00117927 -0.345563 -0.268548 -6.79986 92.6854 -29.6055 21.8803 15.7496 12.3694 0.251387 -0.369625 9.91382 0.00119887 -1.76893 10.216 0.0912817 -1.96406 32.6278 -3.10018 4.06601 -4.32435 0.0772123 5.97308e-012 1.11097e-011 1.63353e-011 
7.68033 102.534 -255.503 -0.175333 -0.0621946 -9.87646 3.4755 -21.3541 0.866772 4.1246 32.1614 -20.3542 4.04876 -8.2214 -0.0507128 0.0498837 -0.226161 0.698916 0.612063 3.96757 1.9417 9.59085 1.25756 0.137712 -12.7876 -11.3033 -6.32277 2.88238e-015 -3.97569e-016 1.59028e-015 -94.3195 -26.4429 -14.7363 -17.8078 10.3668 11.4794 0.368473 9.90896 -0.00117927 0.121351 -0.30239 -7.0274 92.1105 -29.1662 22.1639 16.0364 12.3986 0.59377 -0.369625 9.91382 0.00119887 -1.02817 9.09657 1.15093 -2.13808 35.0794 -3.42691 3.62781 -2.76997 0.0230692 -0.397207 3.34652 -0.691962 
7.22819 102.682 -254.333 -0.320328 -0.135133 -9.79091 3.79765 -20.2655 1.18815 4.26142 31.862 -20.7318 4.04605 -8.79218 -0.0347328 0.0578233 -0.462718 0.677475 0.933281 3.97307 1.88126 9.60562 1.20891 0.137906 -12.4227 -10.3129 -6.31697 2.68359e-015 0 1.59028e-015 -93.9484 -25.7706 -14.8196 -18.2395 10.2699 11.4251 0.368473 9.90896 -0.00117927 0.522494 -0.325545 -7.15696 91.6872 -28.7798 22.4838 16.252 12.4284 0.905438 -0.369625 9.91382 0.00119887 -0.259543 7.78851 2.26956 -2.08899 37.745 -3.6874 3.05479 -1.36165 -0.017694 -0.392471 4.88403 -0.62411 
6.75823 102.684 -253.318 -0.519726 -0.149401 -9.56242 4.27757 -19.5163 2.01701 4.60352 31.8873 -21.7925 4.12394 -9.47363 -0.0143268 0.0780963 -0.739838 0.461235 1.43615 4.0692 1.73515 9.5114 1.15065 0.133692 -11.9133 -9.59912 -6.43594 -3.37934e-015 -7.95139e-016 1.59028e-015 -93.4345 -25.117 -14.9944 -18.8677 10.293 10.6812 0.368473 9.90896 -0.00117927 0.759819 -0.315987 -6.97363 91.6694 -28.5796 22.8866 16.2624 12.4605 1.12322 -0.369625 9.91382 0.00119887 0.569932 5.95772 3.68604 -1.50955 41.0685 -3.89578 1.88586 0.0397842 -0.0215446 0.965537 0.445932 1.98199 
6.30325 102.6 -252.401 -0.743984 -0.171304 -9.17888 4.74966 -18.9262 2.84927 5.03118 32.116 -23.0598 4.25984 -10.2527 0.012866 0.0970406 -1.00491 0.230496 2.02391 4.18698 1.54813 9.35162 1.22238 0.118484 -11.3522 -9.07928 -6.62855 2.98177e-016 0 1.59028e-015 -93.0326 -24.4158 -15.4678 -19.4728 10.3792 9.66859 0.368473 9.90896 -0.00117927 0.865822 -0.297241 -6.73015 91.9237 -28.3716 23.381 16.1871 12.4949 1.31342 -0.369625 9.91382 0.00119887 1.4173 3.869 4.94302 -0.664839 44.587 -3.59888 0.94627 0.432608 -0.00661868 2.94292 -4.68822 4.85033 
5.90064 102.442 -251.568 -0.981767 -0.250821 -8.57395 5.09549 -18.4201 3.18192 5.41751 32.5657 -24.1306 4.51138 -11.1782 0.0570806 0.101772 -1.21023 0.224774 2.64785 4.28261 1.3451 9.1609 1.59276 0.0810982 -10.7894 -8.73086 -6.8527 6.95746e-016 -7.95139e-016 -0 -93.0121 -23.6491 -16.5164 -19.815 10.5115 8.64978 0.368473 9.90896 -0.00117927 0.823481 -0.290174 -6.66642 92.4557 -27.9953 24.0232 16.0799 12.5357 1.54257 -0.369625 9.91382 0.00119887 2.14101 1.64102 5.64223 0.168152 48.0666 -1.80272 1.09043 -1.73563 0.00996123 3.48156 -5.4496 5.60949 
5.52165 102.259 -250.79 -1.20716 -0.394906 -7.83038 5.35698 -17.9231 3.39722 5.91506 33.0642 -25.2539 4.68838 -12.1297 0.0971753 0.110788 -1.3718 0.129477 3.27919 4.34215 1.13039 8.89869 2.14912 0.033728 -10.2674 -8.54203 -7.16171 -7.95139e-016 0 -7.95139e-016 -93.1452 -22.684 -17.928 -20.0967 10.6552 7.64579 0.368473 9.90896 -0.00117927 0.683918 -0.280834 -6.60603 93.0769 -27.4877 24.7089 16.0036 12.5718 1.74692 -0.369625 9.91382 0.00119887 2.76745 -0.63088 5.87595 0.540676 51.2001 0.468348 1.7831 -4.67353 0.0491164 3.80234 -5.49291 6.22785 
5.15133 102.112 -250.033 -1.39286 -0.616284 -7.00034 5.51242 -17.3289 3.83302 6.74528 33.3843 -26.6642 4.47528 -13.0036 0.102297 0.14225 -1.42658 -0.46097 3.87378 4.32795 0.919145 8.53935 2.82063 -0.0157731 -9.85458 -8.50935 -7.60666 -2.08724e-015 7.95139e-016 -0 -93.283 -21.3114 -19.6089 -20.4652 10.7536 6.84042 0.368473 9.90896 -0.00117927 0.491764 -0.261666 -6.45066 93.5185 -26.783 25.3072 16.1062 12.5908 1.88721 -0.369625 9.91382 0.00119887 3.26746 -2.81827 5.507 0.413548 53.6219 1.84796 2.87854 -6.94948 0.132477 5.08097 -6.87995 8.20952 
4.78565 101.971 -249.301 -1.52365 -0.948315 -6.10934 5.5825 -16.6495 4.10355 7.52855 33.6974 -27.9646 4.29954 -13.7988 0.110549 0.173207 -1.56371 -1.03432 4.42668 4.26729 0.703972 8.07204 3.65044 -0.0656267 -9.52703 -8.58381 -8.1537 -4.96962e-016 7.95139e-016 7.95139e-016 -93.3973 -19.7693 -21.4797 -20.8606 10.8599 6.01052 0.368473 9.90896 -0.00117927 0.248877 -0.234263 -6.20596 94.0311 -26.0376 25.9628 16.1865 12.6015 1.95633 -0.369625 9.91382 0.00119887 3.60192 -4.91868 4.79646 -0.040076 55.4683 3.12265 4.06872 -9.03654 0.242403 6.76638 -9.18636 10.7149 
4.41126 101.826 -248.589 -1.54816 -1.46887 -5.18542 5.58423 -15.8367 3.90351 7.90066 34.1597 -28.8408 4.62247 -14.4551 0.161775 0.179104 -2.02699 -1.05877 4.91232 4.16598 0.471493 7.42746 4.70238 -0.113229 -9.28856 -8.71898 -8.8151 4.96962e-016 7.95139e-016 -7.95139e-016 -93.4624 -18.2254 -23.4848 -21.2433 10.9968 5.03471 0.368473 9.90896 -0.00117927 -0.000937333 -0.193852 -5.79646 94.81 -25.432 26.7919 16.0582 12.6109 1.93409 -0.369625 9.91382 0.00119887 3.75854 -6.8601 3.88045 -0.933066 56.7241 4.71559 4.99756 -10.9464 0.379337 8.94742 -12.5902 13.8684 
4.04123 101.678 -247.894 -1.53742 -2.05733 -4.27328 5.57191 -14.9643 3.34841 8.02072 34.6614 -29.29 5.03408 -15.0473 0.221433 0.184334 -2.5906 -0.998721 5.34924 4.0507 0.254708 6.7546 5.84363 -0.153293 -9.12346 -8.90343 -9.50397 -6.95746e-016 -7.95139e-016 -1.59028e-015 -93.4385 -16.6772 -25.4952 -21.6849 11.1914 3.78866 0.368473 9.90896 -0.00117927 -0.339615 -0.151898 -5.36718 95.7621 -24.8126 27.7404 15.8244 12.6126 1.8206 -0.369625 9.91382 0.00119887 3.797 -8.70141 2.9867 -1.91495 57.3827 6.67891 5.6528 -12.6316 0.510026 11.1779 -17.2397 16.502 
3.68101 101.52 -247.22 -1.58653 -2.62339 -3.41473 5.63761 -14.0909 2.35314 7.84771 35.1727 -29.0089 5.24633 -15.6739 0.268142 0.203705 -3.0046 -1.31168 5.76196 3.95861 0.0855382 6.21084 7.00796 -0.179665 -9.01299 -9.15802 -10.1496 1.14301e-015 0 -0 -93.3091 -15.1368 -27.4097 -22.251 11.4757 2.06684 0.368473 9.90896 -0.00117927 -0.870809 -0.122482 -5.10433 96.9212 -24.0254 28.8517 15.5116 12.5993 1.5834 -0.369625 9.91382 0.00119887 3.85992 -10.4896 2.4707 -2.55962 57.4297 9.42175 5.74949 -14.003 0.583666 12.2342 -24.5112 16.9004 
3.34006 101.374 -246.541 -1.60759 -3.15067 -2.6457 5.68896 -13.2066 1.21146 7.57907 35.5985 -28.5501 5.35058 -16.2043 0.301295 0.21263 -3.58427 -1.48738 6.1098 3.86427 -0.0463739 5.69774 8.05934 -0.191937 -8.96141 -9.34301 -10.7144 -5.46658e-016 0 -3.97569e-016 -93.0708 -13.7272 -29.1138 -22.888 11.842 -0.0148814 0.368473 9.90896 -0.00117927 -1.4831 -0.0932867 -4.80888 98.0781 -23.2636 29.9488 15.1627 12.5808 1.30016 -0.369625 9.91382 0.00119887 3.84367 -12.1868 2.10936 -3.04936 56.8043 12.1494 5.72974 -15.1983 0.648441 12.6407 -31.5899 16.7331 
3.03389 101.265 -245.826 -1.53459 -3.5976 -2.03106 5.60411 -12.313 0.183282 7.46766 35.7874 -28.5355 5.27837 -16.4277 0.299616 0.203477 -4.86906 -0.860757 6.34604 3.75027 -0.139949 5.15266 8.81319 -0.184649 -8.97371 -9.30159 -11.1368 -2.78299e-015 1.59028e-015 -0 -92.7455 -12.5853 -30.438 -23.5407 12.2857 -2.40173 0.368473 9.90896 -0.00117927 -2.06836 -0.0526038 -4.29377 99.0159 -22.7124 30.8639 14.8207 12.5631 1.01987 -0.369625 9.91382 0.00119887 3.65484 -13.7719 1.79796 -3.53663 55.4883 14.3028 6.04404 -16.3929 0.750209 12.9118 -35.3185 16.671 
2.74986 101.187 -245.092 -1.41443 -3.9498 -1.52682 5.48528 -11.4552 -0.735252 7.38942 35.8609 -28.5 5.21956 -16.6834 0.303158 0.218949 -5.93789 -0.349342 6.51274 3.62963 -0.19753 4.62493 9.34902 -0.166393 -9.00501 -9.11171 -11.4137 1.36664e-015 -1.59028e-015 1.98785e-016 -92.3493 -11.636 -31.4431 -24.2584 12.8206 -5.12103 0.368473 9.90896 -0.00117927 -2.72261 -0.0124704 -3.70931 99.8677 -22.2326 31.6328 14.5125 12.5512 0.795991 -0.369625 9.91382 0.00119887 3.34217 -15.2435 1.53179 -3.74471 53.5547 15.678 6.4001 -17.3847 0.849234 13.3987 -37.4885 17.0539 
2.47919 101.149 -244.34 -1.27301 -4.15287 -1.11524 5.39791 -10.7059 -1.43199 7.2955 35.906 -28.0758 5.41856 -17.3619 0.360696 0.221826 -5.72061 -0.990727 6.64303 3.50819 -0.212714 4.17452 9.64326 -0.144755 -9.03897 -8.73506 -11.4811 -4.29872e-015 0 -0 -91.8907 -10.8967 -32.1143 -25.113 13.4591 -8.23838 0.368473 9.90896 -0.00117927 -3.58666 0.0177236 -3.14653 100.717 -21.738 32.2059 14.2859 12.5522 0.697175 -0.369625 9.91382 0.00119887 2.89752 -16.6107 1.29766 -3.58957 51.0267 15.8682 6.61083 -17.9732 0.91216 15.0293 -38.8874 19.0194 
2.22584 101.136 -243.584 -1.10302 -4.28587 -0.782814 5.2972 -9.98693 -2.00079 7.19753 35.8723 -27.5868 5.64899 -18.0987 0.426617 0.231349 -5.20403 -1.77462 6.71721 3.39 -0.210671 3.70975 9.82065 -0.11774 -9.01222 -8.35991 -11.4641 -1.83876e-015 1.59028e-015 -9.93923e-017 -91.3684 -10.229 -32.4984 -25.9407 14.1735 -11.5954 0.368473 9.90896 -0.00117927 -4.41558 0.0415395 -2.59617 101.472 -21.2651 32.6697 14.1222 12.5673 0.726745 -0.369625 9.91382 0.00119887 2.37621 -17.8203 1.01344 -3.40553 48.0103 15.5917 6.79908 -18.3297 0.961525 17.0698 -39.2383 21.5661 
